# xmcd
#
# Track frame offsets:
#	150
#	10792
#	14766
#	32787
#	35538
#	40632
#
# Disc length: 683 seconds
#
# Revision: 1
# Processed by: cddbd v1.5.2PL0 Copyright (c) Steve Scherf et al.
# Submitted via: audiograbber 1.83.01
#
DISCID=4002a906
DTITLE=Die Eierm‰nner - Pferde
DYEAR=1900
DGENRE=
TTITLE0=Groﬂer Reiter-Einzugsmarsch
TTITLE1=Die Ballade vom Reiter
TTITLE2=Das Ponylied
TTITLE3=Das Galopperlied
TTITLE4=Der Viagramann
TTITLE5=Groﬂer Reiter-Auszugsmarsch
EXTD=First Edition
EXTT0=
EXTT1=
EXTT2=
EXTT3=
EXTT4=
EXTT5=
PLAYORDER=
